<svg width="493" height="76" viewBox="0 0 493 76" fill="none" xmlns="http://www.w3.org/2000/svg">
<g filter="url(#filter0_d)">
<path d="M1 34.5C9.5 12 29.2195 -18.9231 48.5 34.5C72.5 101 93.0685 50.8116 99 34.5C105 18 122.149 -20.625 144 34.5C166 90 183.5 65.5 194.5 34.5C205.5 3.49999 222.5 -13 241.5 34.5" stroke="#FF0000" stroke-width="2"/>
<path d="M241.5 34.5248C250 57.0248 269.72 87.9479 289 34.5248C313 -31.9752 333.569 18.2133 339.5 34.5248C345.5 51.0248 362.649 89.6499 384.5 34.5248C406.5 -20.9752 424 3.52485 435 34.5248C446 65.5248 463 82.0248 482 34.5248" stroke="#FF0000" stroke-width="2"/>
</g>
<defs>
<filter id="filter0_d" x="0.0645294" y="0" width="492.864" height="75.0248" filterUnits="userSpaceOnUse" color-interpolation-filters="sRGB">
<feFlood flood-opacity="0" result="BackgroundImageFix"/>
<feColorMatrix in="SourceAlpha" type="matrix" values="0 0 0 0 0 0 0 0 0 0 0 0 0 0 0 0 0 0 127 0"/>
<feOffset dx="10" dy="6"/>
<feColorMatrix type="matrix" values="0 0 0 0 1 0 0 0 0 0 0 0 0 0 0 0 0 0 0.5 0"/>
<feBlend mode="normal" in2="BackgroundImageFix" result="effect1_dropShadow"/>
<feBlend mode="normal" in="SourceGraphic" in2="effect1_dropShadow" result="shape"/>
</filter>
</defs>
</svg>
