<svg width="136" height="185" viewBox="0 0 136 185" fill="none" xmlns="http://www.w3.org/2000/svg">
<path d="M63.1294 178.881L63.181 178.334H62.6316H60.4167H59.9768L59.9208 178.77C59.8107 179.629 59.5598 180.143 59.2487 180.421C58.9364 180.7 58.421 180.883 57.613 180.883C56.807 180.883 56.2424 180.588 55.8465 180.011C55.4347 179.403 55.1951 178.464 55.1951 177.129V175.997C55.2066 174.683 55.462 173.771 55.8891 173.189C56.306 172.622 56.8927 172.329 57.7185 172.329C58.4741 172.329 58.9595 172.515 59.2621 172.805L59.2621 172.805L59.2672 172.81C59.5765 173.098 59.8208 173.623 59.92 174.488L59.9708 174.931H60.4167H62.6316H63.1843L63.1291 174.381C62.9788 172.885 62.4357 171.674 61.4613 170.805C60.489 169.939 59.2246 169.527 57.7185 169.527C56.5871 169.527 55.568 169.797 54.6776 170.35L54.6776 170.35L54.6762 170.35C53.7906 170.904 53.116 171.69 52.6509 172.691C52.1871 173.688 51.9626 174.826 51.9626 176.092V177.287H51.9626L51.9627 177.295C51.9811 178.53 52.2121 179.637 52.67 180.604C53.1292 181.573 53.7883 182.337 54.6486 182.878L54.6486 182.878L54.6524 182.881C55.5193 183.415 56.5117 183.676 57.613 183.676C59.1607 183.676 60.4562 183.27 61.4473 182.411L61.4488 182.41C62.4407 181.543 62.9907 180.35 63.1294 178.881ZM70.411 178.798L70.4138 178.8C70.6723 178.998 70.8152 179.276 70.8152 179.704C70.8152 180.072 70.6843 180.344 70.4126 180.563C70.1522 180.772 69.7052 180.918 68.9861 180.918C68.1564 180.918 67.5986 180.733 67.2398 180.435C66.8933 180.148 66.7 179.738 66.7 179.133V178.633H66.2H63.9763H63.4763V179.133C63.4763 180.03 63.7172 180.836 64.21 181.531L64.21 181.531L64.2119 181.534C64.7039 182.219 65.3818 182.746 66.2244 183.122L66.2244 183.123L66.2286 183.124C67.0764 183.494 67.9977 183.676 68.9861 183.676C70.4573 183.676 71.6846 183.346 72.6133 182.632L72.6138 182.631C73.5609 181.901 74.0388 180.903 74.0388 179.687C74.0388 178.958 73.8821 178.298 73.5504 177.723C73.219 177.144 72.7105 176.656 72.0551 176.248C71.3997 175.835 70.5537 175.482 69.5328 175.182C68.5516 174.887 67.9031 174.602 67.5388 174.342C67.2141 174.104 67.0955 173.853 67.0955 173.569C67.0955 173.15 67.2366 172.869 67.4991 172.664C67.7858 172.444 68.2285 172.303 68.8894 172.303C69.5917 172.303 70.0511 172.474 70.3447 172.743L70.3447 172.743L70.3502 172.748C70.6456 173.01 70.8152 173.385 70.8152 173.938V174.438H71.3152H73.53H74.03V173.938C74.03 173.105 73.8035 172.338 73.3504 171.651C72.8984 170.96 72.2774 170.432 71.5017 170.067C70.7282 169.703 69.8598 169.527 68.907 169.527C67.481 169.527 66.2704 169.884 65.3183 170.637L65.317 170.638C64.3655 171.397 63.8718 172.388 63.8718 173.578C63.8718 174.959 64.5721 176.061 65.8549 176.867L65.8559 176.867C66.5166 177.28 67.3827 177.642 68.4376 177.959C69.4626 178.268 70.0968 178.554 70.411 178.798ZM81.2742 178.798L81.2771 178.8C81.5356 178.998 81.6785 179.276 81.6785 179.704C81.6785 180.072 81.5476 180.344 81.2759 180.563C81.0155 180.772 80.5685 180.918 79.8494 180.918C79.0197 180.918 78.4618 180.733 78.1031 180.435C77.7566 180.148 77.5632 179.738 77.5632 179.133V178.633H77.0632H74.8396H74.3396V179.133C74.3396 180.03 74.5805 180.836 75.0733 181.531L75.0751 181.534C75.5672 182.219 76.2451 182.746 77.0877 183.122L77.0877 183.123L77.0919 183.124C77.9396 183.494 78.861 183.676 79.8494 183.676C81.3206 183.676 82.5479 183.346 83.4766 182.632L83.477 182.631C84.4242 181.901 84.9021 180.903 84.9021 179.687C84.9021 178.958 84.7454 178.298 84.4137 177.723C84.0823 177.144 83.5738 176.656 82.9184 176.248C82.263 175.835 81.4169 175.482 80.3961 175.182C79.415 174.887 78.7664 174.602 78.4021 174.342C78.0774 174.104 77.9587 173.853 77.9587 173.569C77.9587 173.15 78.0999 172.869 78.3624 172.664C78.6491 172.444 79.0918 172.303 79.7527 172.303C80.455 172.303 80.9144 172.474 81.208 172.743L81.208 172.743L81.2135 172.748C81.5089 173.01 81.6785 173.385 81.6785 173.938V174.438H82.1785H84.3933H84.8933V173.938C84.8933 173.105 84.6668 172.338 84.2137 171.651C83.7616 170.96 83.1407 170.432 82.365 170.067C81.5915 169.703 80.7231 169.527 79.7703 169.527C78.3442 169.527 77.1337 169.884 76.1816 170.637L76.1803 170.638C75.2288 171.397 74.7351 172.388 74.7351 173.578C74.7351 174.959 75.4354 176.061 76.7182 176.867L76.7191 176.867C77.3799 177.28 78.246 177.642 79.3009 177.959C80.3259 178.268 80.9601 178.554 81.2742 178.798Z" stroke="black"/>
<path d="M134.809 1H1.30933L12.3093 137.5L68.8093 153L122.809 137.5L134.809 1Z" stroke="black"/>
<path d="M123.809 10.5H68.3093V142L113.309 129L123.809 10.5Z" stroke="black"/>
<path d="M110.309 28H25.8093L27.3093 45H91.8093L90.3093 62.5H28.8093L29.8093 79H88.8093L86.3093 101L68.3093 106L49.3093 101L47.8093 88H30.8093L33.3093 114.5L68.3093 124L102.809 114.5L110.309 28Z" stroke="black"/>
</svg>
