<svg width="32" height="32" viewBox="0 0 32 32" fill="none" xmlns="http://www.w3.org/2000/svg">
<path d="M11.6 31L12 30.7959V27.7347H11.4L9.8 27.9388L8.2 27.5306L7.2 26.5102L6.6 25.0816L6 24.2653L4.8 23.2449V22.6327L5.2 22.2245L6.2 22.4286L7.4 23.2449L8.8 25.0816L10 25.4898H11.6L12.2 24.6735L13 23.2449H12L10 22.8367L8 21.2041L6.6 19.1633L6.2 16.9184L6.4 14.8776L6.8 13.0408L7.6 11.4082L7.4 10.1837V8.55102L8 7.12245L9.6 7.32653L12.2 8.95918L14.8 8.14286H16.8L20 8.7551L21.4 7.93878L23 7.12245L24 7.32653L24.4 8.34694V10.3878L24.2 11.4082L24.8 12.2245L25.6 14.0612V17.3265L25.2 19.3673L24 21.2041L22.2 22.6327L20.4 23.2449L18.8 23.449L19.2 23.6531L19.8 24.8776V26.102V31H20.8L22.6 30.1837L25.2 28.7551L27.2 26.9184L28.6 24.6735L29.8 22.6327L30.8 19.3673L31 17.1224L30.8 14.4694L30.2 11.6122L29.4 9.36735L27.6 6.91837L25.8 4.87755L23.8 3.44898L21.2 2.02041L18 1.20408L15.8 1L13.6 1.20408L10.4 2.22449L8.2 3.2449L6 4.87755L4.4 6.5102L2.8 9.16327L1.4 12.0204L1 14.0612V17.5306L1.2 19.5714L1.8 21.2041L2.8 23.449L3.6 25.2857L5 26.9184L6.4 28.3469L8.4 29.7755L10.6 30.7959L11.6 31Z" fill="#323131" stroke="black"/>
</svg>
