<svg width="136" height="184" viewBox="0 0 136 184" fill="none" xmlns="http://www.w3.org/2000/svg">
<path d="M55.2839 183.5H55.7839V183V170.203V169.703H55.2839H53.0691H52.5691V170.203V175.029H47.8474V170.203V169.703H47.3474H45.1238H44.6238V170.203V183V183.5H45.1238H47.3474H47.8474V183V177.813H52.5691V183V183.5H53.0691H55.2839ZM66.9031 172.496H67.4031V171.996V170.203V169.703H66.9031H56.7517H56.2517V170.203V171.996V172.496H56.7517H60.2068V183V183.5H60.7068H62.9128H63.4128V183V172.496H66.9031ZM71.9413 170.027L71.8195 169.703H71.4734H68.5906H68.0906V170.203V183V183.5H68.5906H70.8054H71.3054V183V178.781V178.772L71.305 178.762L71.2036 176.161L73.8892 183.179L74.0122 183.5H74.3562H75.947H76.2909L76.4139 183.179L79.1088 176.147L79.007 178.762L79.0066 178.772V178.781V183V183.5H79.5066H81.7214H82.2214V183V170.203V169.703H81.7214H78.8474H78.5011L78.3793 170.027L75.1642 178.591L71.9413 170.027ZM92.8914 181.225V180.725H92.3914H87.0818V170.203V169.703H86.5818H84.3582H83.8582V170.203V183V183.5H84.3582H92.3914H92.8914V183V181.225Z" stroke="black"/>
<path d="M134.809 1H1.30933L12.3093 137.5L68.8093 153L122.809 137.5L134.809 1Z" stroke="black"/>
<path d="M123.809 10.5H68.3093V142L113.309 129L123.809 10.5Z" stroke="black"/>
<path d="M25.3093 28H110.309L108.309 45H43.8093L45.3093 62.5H106.809L102.309 114L68.3093 124L32.8093 114L30.3093 88L47.3093 88.5L48.8093 100.5L68.3093 106.5L86.3093 100.5L88.3093 79H29.3093L25.3093 28Z" stroke="black"/>
</svg>
