<svg width="132" height="187" viewBox="0 0 132 187" fill="none" xmlns="http://www.w3.org/2000/svg">
<mask id="path-1-outside-1" maskUnits="userSpaceOnUse" x="12.4705" y="170.898" width="107" height="16" fill="black">
<rect fill="white" x="12.4705" y="170.898" width="107" height="16"/>
<path d="M19.614 172.074H21.8289V181.047C21.8289 182.272 21.4451 183.245 20.6775 183.965C19.9158 184.686 18.908 185.046 17.6541 185.046C16.3181 185.046 15.2869 184.709 14.5603 184.036C13.8337 183.362 13.4705 182.424 13.4705 181.223H15.6853C15.6853 181.903 15.8523 182.416 16.1863 182.761C16.5261 183.101 17.0154 183.271 17.6541 183.271C18.2517 183.271 18.7263 183.075 19.0779 182.682C19.4353 182.284 19.614 181.736 19.614 181.039V172.074Z"/>
<path d="M31.3474 181.891H26.3904L25.3533 184.871H23.0417L27.8757 172.074H29.8708L34.7136 184.871H32.3933L31.3474 181.891ZM27.0144 180.098H30.7234L28.8689 174.79L27.0144 180.098Z"/>
<path d="M39.9958 182.084L43.2478 172.074H45.6912L41.0857 184.871H38.9324L34.3445 172.074H36.7791L39.9958 182.084Z"/>
<path d="M53.6365 181.891H48.6794L47.6423 184.871H45.3308L50.1648 172.074H52.1599L57.0027 184.871H54.6824L53.6365 181.891ZM49.3035 180.098H53.0125L51.158 174.79L49.3035 180.098Z"/>
<path d="M65.1501 181.575C65.1501 181.012 64.9509 180.579 64.5525 180.274C64.1599 179.969 63.448 179.662 62.4167 179.351C61.3855 179.041 60.5652 178.695 59.9558 178.314C58.7898 177.582 58.2068 176.626 58.2068 175.449C58.2068 174.417 58.6257 173.568 59.4636 172.9C60.3074 172.232 61.4001 171.898 62.7419 171.898C63.6326 171.898 64.4265 172.062 65.1238 172.39C65.821 172.718 66.3689 173.187 66.7673 173.796C67.1658 174.4 67.365 175.071 67.365 175.809H65.1501C65.1501 175.141 64.9392 174.62 64.5173 174.245C64.1013 173.864 63.5037 173.673 62.7244 173.673C61.9978 173.673 61.4324 173.829 61.0281 174.139C60.6296 174.45 60.4304 174.883 60.4304 175.44C60.4304 175.909 60.6472 176.301 61.0808 176.618C61.5144 176.928 62.2292 177.233 63.2253 177.532C64.2214 177.825 65.0212 178.162 65.6248 178.542C66.2283 178.917 66.6707 179.351 66.9519 179.843C67.2332 180.33 67.3738 180.901 67.3738 181.557C67.3738 182.624 66.9636 183.473 66.1433 184.106C65.3289 184.733 64.2214 185.046 62.821 185.046C61.8953 185.046 61.0427 184.876 60.2634 184.537C59.49 184.191 58.8865 183.716 58.4529 183.113C58.0251 182.509 57.8113 181.806 57.8113 181.003H60.0349C60.0349 181.73 60.2751 182.292 60.7556 182.691C61.2361 183.089 61.9246 183.289 62.821 183.289C63.5945 183.289 64.1746 183.133 64.5613 182.823C64.9539 182.506 65.1501 182.09 65.1501 181.575Z"/>
<path d="M79.0896 180.705C78.9607 182.07 78.4568 183.136 77.5779 183.904C76.699 184.666 75.53 185.046 74.071 185.046C73.0515 185.046 72.1521 184.806 71.3728 184.326C70.5994 183.839 70.0017 183.151 69.5798 182.26C69.158 181.37 68.9382 180.335 68.9207 179.158V177.962C68.9207 176.755 69.1345 175.692 69.5623 174.772C69.99 173.852 70.6023 173.143 71.3992 172.645C72.2019 172.147 73.1277 171.898 74.1765 171.898C75.5886 171.898 76.7253 172.282 77.5867 173.049C78.448 173.817 78.949 174.901 79.0896 176.301H76.8748C76.7693 175.381 76.4998 174.719 76.0662 174.315C75.6384 173.905 75.0085 173.7 74.1765 173.7C73.2097 173.7 72.4656 174.054 71.9441 174.763C71.4285 175.466 71.1648 176.5 71.1531 177.866V179C71.1531 180.382 71.3992 181.437 71.8914 182.164C72.3894 182.89 73.116 183.253 74.071 183.253C74.9441 183.253 75.6003 183.057 76.0398 182.665C76.4792 182.272 76.7576 181.619 76.8748 180.705H79.0896Z"/>
<path d="M85.7869 179.94H83.3083V184.871H81.0847V172.074H85.5847C87.0613 172.074 88.2009 172.405 89.0037 173.067C89.8064 173.729 90.2078 174.687 90.2078 175.941C90.2078 176.796 89.9998 177.514 89.5837 178.094C89.1736 178.668 88.5994 179.111 87.8611 179.421L90.7351 184.756V184.871H88.3533L85.7869 179.94ZM83.3083 178.156H85.5935C86.3435 178.156 86.9294 177.968 87.3513 177.593C87.7732 177.212 87.9841 176.694 87.9841 176.038C87.9841 175.352 87.7878 174.822 87.3953 174.447C87.0085 174.072 86.4285 173.878 85.655 173.867H83.3083V178.156Z"/>
<path d="M94.6638 184.871H92.449V172.074H94.6638V184.871Z"/>
<path d="M99.6208 180.116V184.871H97.3972V172.074H102.293C103.722 172.074 104.856 172.446 105.694 173.19C106.538 173.934 106.96 174.918 106.96 176.143C106.96 177.397 106.547 178.373 105.72 179.07C104.9 179.767 103.749 180.116 102.266 180.116H99.6208ZM99.6208 178.332H102.293C103.084 178.332 103.687 178.147 104.103 177.778C104.519 177.403 104.727 176.864 104.727 176.161C104.727 175.469 104.516 174.918 104.094 174.508C103.673 174.092 103.093 173.878 102.354 173.867H99.6208V178.332Z"/>
<path d="M118.157 173.867H114.167V184.871H111.961V173.867H108.006V172.074H118.157V173.867Z"/>
</mask>
<path d="M19.614 172.074H21.8289V181.047C21.8289 182.272 21.4451 183.245 20.6775 183.965C19.9158 184.686 18.908 185.046 17.6541 185.046C16.3181 185.046 15.2869 184.709 14.5603 184.036C13.8337 183.362 13.4705 182.424 13.4705 181.223H15.6853C15.6853 181.903 15.8523 182.416 16.1863 182.761C16.5261 183.101 17.0154 183.271 17.6541 183.271C18.2517 183.271 18.7263 183.075 19.0779 182.682C19.4353 182.284 19.614 181.736 19.614 181.039V172.074Z" stroke="black" stroke-width="2" mask="url(#path-1-outside-1)"/>
<path d="M31.3474 181.891H26.3904L25.3533 184.871H23.0417L27.8757 172.074H29.8708L34.7136 184.871H32.3933L31.3474 181.891ZM27.0144 180.098H30.7234L28.8689 174.79L27.0144 180.098Z" stroke="black" stroke-width="2" mask="url(#path-1-outside-1)"/>
<path d="M39.9958 182.084L43.2478 172.074H45.6912L41.0857 184.871H38.9324L34.3445 172.074H36.7791L39.9958 182.084Z" stroke="black" stroke-width="2" mask="url(#path-1-outside-1)"/>
<path d="M53.6365 181.891H48.6794L47.6423 184.871H45.3308L50.1648 172.074H52.1599L57.0027 184.871H54.6824L53.6365 181.891ZM49.3035 180.098H53.0125L51.158 174.79L49.3035 180.098Z" stroke="black" stroke-width="2" mask="url(#path-1-outside-1)"/>
<path d="M65.1501 181.575C65.1501 181.012 64.9509 180.579 64.5525 180.274C64.1599 179.969 63.448 179.662 62.4167 179.351C61.3855 179.041 60.5652 178.695 59.9558 178.314C58.7898 177.582 58.2068 176.626 58.2068 175.449C58.2068 174.417 58.6257 173.568 59.4636 172.9C60.3074 172.232 61.4001 171.898 62.7419 171.898C63.6326 171.898 64.4265 172.062 65.1238 172.39C65.821 172.718 66.3689 173.187 66.7673 173.796C67.1658 174.4 67.365 175.071 67.365 175.809H65.1501C65.1501 175.141 64.9392 174.62 64.5173 174.245C64.1013 173.864 63.5037 173.673 62.7244 173.673C61.9978 173.673 61.4324 173.829 61.0281 174.139C60.6296 174.45 60.4304 174.883 60.4304 175.44C60.4304 175.909 60.6472 176.301 61.0808 176.618C61.5144 176.928 62.2292 177.233 63.2253 177.532C64.2214 177.825 65.0212 178.162 65.6248 178.542C66.2283 178.917 66.6707 179.351 66.9519 179.843C67.2332 180.33 67.3738 180.901 67.3738 181.557C67.3738 182.624 66.9636 183.473 66.1433 184.106C65.3289 184.733 64.2214 185.046 62.821 185.046C61.8953 185.046 61.0427 184.876 60.2634 184.537C59.49 184.191 58.8865 183.716 58.4529 183.113C58.0251 182.509 57.8113 181.806 57.8113 181.003H60.0349C60.0349 181.73 60.2751 182.292 60.7556 182.691C61.2361 183.089 61.9246 183.289 62.821 183.289C63.5945 183.289 64.1746 183.133 64.5613 182.823C64.9539 182.506 65.1501 182.09 65.1501 181.575Z" stroke="black" stroke-width="2" mask="url(#path-1-outside-1)"/>
<path d="M79.0896 180.705C78.9607 182.07 78.4568 183.136 77.5779 183.904C76.699 184.666 75.53 185.046 74.071 185.046C73.0515 185.046 72.1521 184.806 71.3728 184.326C70.5994 183.839 70.0017 183.151 69.5798 182.26C69.158 181.37 68.9382 180.335 68.9207 179.158V177.962C68.9207 176.755 69.1345 175.692 69.5623 174.772C69.99 173.852 70.6023 173.143 71.3992 172.645C72.2019 172.147 73.1277 171.898 74.1765 171.898C75.5886 171.898 76.7253 172.282 77.5867 173.049C78.448 173.817 78.949 174.901 79.0896 176.301H76.8748C76.7693 175.381 76.4998 174.719 76.0662 174.315C75.6384 173.905 75.0085 173.7 74.1765 173.7C73.2097 173.7 72.4656 174.054 71.9441 174.763C71.4285 175.466 71.1648 176.5 71.1531 177.866V179C71.1531 180.382 71.3992 181.437 71.8914 182.164C72.3894 182.89 73.116 183.253 74.071 183.253C74.9441 183.253 75.6003 183.057 76.0398 182.665C76.4792 182.272 76.7576 181.619 76.8748 180.705H79.0896Z" stroke="black" stroke-width="2" mask="url(#path-1-outside-1)"/>
<path d="M85.7869 179.94H83.3083V184.871H81.0847V172.074H85.5847C87.0613 172.074 88.2009 172.405 89.0037 173.067C89.8064 173.729 90.2078 174.687 90.2078 175.941C90.2078 176.796 89.9998 177.514 89.5837 178.094C89.1736 178.668 88.5994 179.111 87.8611 179.421L90.7351 184.756V184.871H88.3533L85.7869 179.94ZM83.3083 178.156H85.5935C86.3435 178.156 86.9294 177.968 87.3513 177.593C87.7732 177.212 87.9841 176.694 87.9841 176.038C87.9841 175.352 87.7878 174.822 87.3953 174.447C87.0085 174.072 86.4285 173.878 85.655 173.867H83.3083V178.156Z" stroke="black" stroke-width="2" mask="url(#path-1-outside-1)"/>
<path d="M94.6638 184.871H92.449V172.074H94.6638V184.871Z" stroke="black" stroke-width="2" mask="url(#path-1-outside-1)"/>
<path d="M99.6208 180.116V184.871H97.3972V172.074H102.293C103.722 172.074 104.856 172.446 105.694 173.19C106.538 173.934 106.96 174.918 106.96 176.143C106.96 177.397 106.547 178.373 105.72 179.07C104.9 179.767 103.749 180.116 102.266 180.116H99.6208ZM99.6208 178.332H102.293C103.084 178.332 103.687 178.147 104.103 177.778C104.519 177.403 104.727 176.864 104.727 176.161C104.727 175.469 104.516 174.918 104.094 174.508C103.673 174.092 103.093 173.878 102.354 173.867H99.6208V178.332Z" stroke="black" stroke-width="2" mask="url(#path-1-outside-1)"/>
<path d="M118.157 173.867H114.167V184.871H111.961V173.867H108.006V172.074H118.157V173.867Z" stroke="black" stroke-width="2" mask="url(#path-1-outside-1)"/>
<path d="M130.619 1H1L12.8347 137.741L64.6822 153.385L118.784 137.741L130.619 1Z" stroke="black"/>
<path d="M119.347 12.0088H65.2458V141.797L109.767 129.05L119.347 12.0088Z" stroke="black"/>
<path d="M61.3009 27.0735H25.2331V43.8765H44.9576V101.238L35.3771 100.659L34.8136 87.3324H17.9068L20.161 112.826L61.3009 121.518V27.0735Z" stroke="black"/>
<path d="M112.585 27.0735H70.3178L70.8814 78.0618H92.8602L91.1695 100.659L70.8814 104.715V121.518L105.822 112.826L109.203 61.8382H87.2246V43.8765H112.585V27.0735Z" stroke="black"/>
</svg>
