<svg width="40" height="15" viewBox="0 0 40 15" fill="none" xmlns="http://www.w3.org/2000/svg">
<rect x="0.5" y="0.5" width="39" height="14" rx="3.5" stroke="black"/>
<path d="M3.74561 5.89209C4.18604 5.3514 4.75895 5.08105 5.46436 5.08105C6.69255 5.08105 7.31201 5.77393 7.32275 7.15967V11H6.3291V7.1543C6.32552 6.73535 6.22884 6.42562 6.03906 6.2251C5.85286 6.02458 5.56104 5.92432 5.16357 5.92432C4.84131 5.92432 4.55843 6.01025 4.31494 6.18213C4.07145 6.354 3.88167 6.57959 3.74561 6.85889V11H2.75195V2.75H3.74561V5.89209ZM10.1587 3.78125V5.18848H11.2437V5.95654H10.1587V9.56055C10.1587 9.79329 10.207 9.96875 10.3037 10.0869C10.4004 10.2015 10.5651 10.2588 10.7979 10.2588C10.9124 10.2588 11.07 10.2373 11.2705 10.1943V11C11.0091 11.0716 10.7549 11.1074 10.5078 11.1074C10.0638 11.1074 9.729 10.9731 9.50342 10.7046C9.27783 10.436 9.16504 10.0547 9.16504 9.56055V5.95654H8.10693V5.18848H9.16504V3.78125H10.1587ZM13.7573 3.78125V5.18848H14.8423V5.95654H13.7573V9.56055C13.7573 9.79329 13.8057 9.96875 13.9023 10.0869C13.999 10.2015 14.1637 10.2588 14.3965 10.2588C14.5111 10.2588 14.6686 10.2373 14.8691 10.1943V11C14.6077 11.0716 14.3535 11.1074 14.1064 11.1074C13.6624 11.1074 13.3276 10.9731 13.1021 10.7046C12.8765 10.436 12.7637 10.0547 12.7637 9.56055V5.95654H11.7056V5.18848H12.7637V3.78125H13.7573ZM20.917 8.15869C20.917 9.04313 20.7147 9.7557 20.3101 10.2964C19.9054 10.8371 19.3576 11.1074 18.6665 11.1074C17.9611 11.1074 17.4061 10.8836 17.0015 10.436V13.2344H16.0078V5.18848H16.9155L16.9639 5.83301C17.3685 5.33171 17.9307 5.08105 18.6504 5.08105C19.3486 5.08105 19.9001 5.34424 20.3047 5.87061C20.7129 6.39697 20.917 7.12923 20.917 8.06738V8.15869ZM19.9233 8.0459C19.9233 7.39062 19.7837 6.87321 19.5044 6.49365C19.2251 6.1141 18.842 5.92432 18.355 5.92432C17.7534 5.92432 17.3022 6.19108 17.0015 6.72461V9.50146C17.2987 10.0314 17.7534 10.2964 18.3657 10.2964C18.842 10.2964 19.2197 10.1084 19.499 9.73242C19.7819 9.35286 19.9233 8.79069 19.9233 8.0459ZM25.5684 9.4585C25.5684 9.18994 25.4663 8.98226 25.2622 8.83545C25.0617 8.68506 24.709 8.55615 24.2041 8.44873C23.7028 8.34131 23.3035 8.2124 23.0063 8.06201C22.7127 7.91162 22.4943 7.73258 22.3511 7.5249C22.2114 7.31722 22.1416 7.07015 22.1416 6.78369C22.1416 6.30745 22.3421 5.90462 22.7432 5.5752C23.1478 5.24577 23.6634 5.08105 24.29 5.08105C24.9489 5.08105 25.4824 5.25114 25.8906 5.59131C26.3024 5.93148 26.5083 6.36654 26.5083 6.89648H25.5093C25.5093 6.62435 25.3929 6.38981 25.1602 6.19287C24.931 5.99593 24.641 5.89746 24.29 5.89746C23.9284 5.89746 23.6455 5.97624 23.4414 6.13379C23.2373 6.29134 23.1353 6.49723 23.1353 6.75146C23.1353 6.99137 23.2301 7.1722 23.4199 7.29395C23.6097 7.41569 23.9517 7.53206 24.4458 7.64307C24.9435 7.75407 25.3464 7.88656 25.6543 8.04053C25.9622 8.1945 26.1896 8.3807 26.3364 8.59912C26.4868 8.81396 26.562 9.07715 26.562 9.38867C26.562 9.90788 26.3543 10.325 25.939 10.6401C25.5236 10.9517 24.9847 11.1074 24.3223 11.1074C23.8568 11.1074 23.445 11.0251 23.0869 10.8604C22.7288 10.6956 22.4478 10.4665 22.2437 10.1729C22.0431 9.87565 21.9429 9.55518 21.9429 9.21143H22.9365C22.9544 9.54443 23.0869 9.80941 23.334 10.0063C23.5846 10.1997 23.9141 10.2964 24.3223 10.2964C24.6982 10.2964 24.999 10.2212 25.2246 10.0708C25.4538 9.91683 25.5684 9.71273 25.5684 9.4585ZM27.8242 10.479C27.8242 10.3071 27.8743 10.1639 27.9746 10.0493C28.0785 9.93473 28.2324 9.87744 28.4365 9.87744C28.6406 9.87744 28.7946 9.93473 28.8984 10.0493C29.0059 10.1639 29.0596 10.3071 29.0596 10.479C29.0596 10.6437 29.0059 10.7816 28.8984 10.8926C28.7946 11.0036 28.6406 11.0591 28.4365 11.0591C28.2324 11.0591 28.0785 11.0036 27.9746 10.8926C27.8743 10.7816 27.8242 10.6437 27.8242 10.479ZM27.8296 5.73633C27.8296 5.56445 27.8797 5.42122 27.98 5.30664C28.0838 5.19206 28.2378 5.13477 28.4419 5.13477C28.646 5.13477 28.8 5.19206 28.9038 5.30664C29.0112 5.42122 29.0649 5.56445 29.0649 5.73633C29.0649 5.90104 29.0112 6.0389 28.9038 6.1499C28.8 6.2609 28.646 6.31641 28.4419 6.31641C28.2378 6.31641 28.0838 6.2609 27.98 6.1499C27.8797 6.0389 27.8296 5.90104 27.8296 5.73633ZM30.7192 11.6714H29.8652L33.1309 3.17969H33.9795L30.7192 11.6714ZM34.0493 11.6714H33.1953L36.4609 3.17969H37.3096L34.0493 11.6714Z" fill="black"/>
</svg>
