<svg width="189" height="212" viewBox="0 0 189 212" fill="none" xmlns="http://www.w3.org/2000/svg">
<mask id="path-1-outside-1" maskUnits="userSpaceOnUse" x="38.8435" y="192.027" width="112" height="16" fill="black">
<rect fill="white" x="38.8435" y="192.027" width="112" height="16"/>
<path d="M50.4607 199.936C50.4607 201.189 50.2439 202.291 49.8103 203.24C49.3767 204.184 48.7556 204.91 47.947 205.42C47.1443 205.924 46.2185 206.176 45.1697 206.176C44.1326 206.176 43.2068 205.924 42.3923 205.42C41.5837 204.91 40.9568 204.187 40.5115 203.249C40.072 202.312 39.8494 201.23 39.8435 200.006V199.285C39.8435 198.037 40.0632 196.936 40.5027 195.98C40.948 195.025 41.572 194.296 42.3748 193.792C43.1833 193.282 44.1091 193.027 45.1521 193.027C46.1951 193.027 47.1179 193.279 47.9207 193.783C48.7292 194.281 49.3533 195.002 49.7927 195.945C50.2322 196.883 50.4548 197.976 50.4607 199.224V199.936ZM48.2371 199.268C48.2371 197.85 47.9675 196.763 47.4285 196.007C46.8953 195.251 46.1365 194.873 45.1521 194.873C44.1912 194.873 43.4382 195.251 42.8933 196.007C42.3542 196.757 42.0789 197.82 42.0671 199.197V199.936C42.0671 201.342 42.3396 202.429 42.8845 203.196C43.4353 203.964 44.197 204.348 45.1697 204.348C46.1541 204.348 46.9099 203.973 47.4373 203.223C47.9705 202.473 48.2371 201.377 48.2371 199.936V199.268Z"/>
<path d="M54.8992 201.245V206H52.6755V193.203H57.571C59.0007 193.203 60.1345 193.575 60.9724 194.319C61.8162 195.063 62.238 196.048 62.238 197.272C62.238 198.526 61.825 199.502 60.9988 200.199C60.1785 200.896 59.0271 201.245 57.5447 201.245H54.8992ZM54.8992 199.461H57.571C58.3621 199.461 58.9656 199.276 59.3816 198.907C59.7976 198.532 60.0056 197.993 60.0056 197.29C60.0056 196.599 59.7947 196.048 59.3728 195.638C58.9509 195.222 58.3708 195.008 57.6326 194.996H54.8992V199.461Z"/>
<path d="M71.6687 200.287H66.4128V204.225H72.5564V206H64.1892V193.203H72.4949V194.996H66.4128V198.529H71.6687V200.287Z"/>
<path d="M84.5183 206H82.2947L76.5906 196.921V206H74.3669V193.203H76.5906L82.3123 202.317V193.203H84.5183V206Z"/>
<path d="M89.3699 204.225H95.1794V206H87.1462V193.203H89.3699V204.225Z"/>
<path d="M104.223 203.021H99.2664L98.2292 206H95.9177L100.752 193.203H102.747L107.59 206H105.269L104.223 203.021ZM99.8904 201.228H103.599L101.745 195.919L99.8904 201.228Z"/>
<path d="M111.905 199.268L114.849 193.203H117.31L113.021 201.289V206H110.789V201.289L106.491 193.203H108.961L111.905 199.268Z"/>
<path d="M126.178 200.287H120.923V204.225H127.066V206H118.699V193.203H127.005V194.996H120.923V198.529H126.178V200.287Z"/>
<path d="M133.579 201.069H131.1V206H128.877V193.203H133.377C134.853 193.203 135.993 193.534 136.796 194.196C137.598 194.858 138 195.816 138 197.07C138 197.926 137.792 198.644 137.376 199.224C136.966 199.798 136.391 200.24 135.653 200.551L138.527 205.886V206H136.145L133.579 201.069ZM131.1 199.285H133.385C134.135 199.285 134.721 199.098 135.143 198.723C135.565 198.342 135.776 197.823 135.776 197.167C135.776 196.481 135.58 195.951 135.187 195.576C134.801 195.201 134.22 195.008 133.447 194.996H131.1V199.285Z"/>
<path d="M146.798 202.704C146.798 202.142 146.598 201.708 146.2 201.403C145.807 201.099 145.095 200.791 144.064 200.48C143.033 200.17 142.213 199.824 141.603 199.443C140.437 198.711 139.854 197.756 139.854 196.578C139.854 195.547 140.273 194.697 141.111 194.029C141.955 193.361 143.048 193.027 144.389 193.027C145.28 193.027 146.074 193.191 146.771 193.52C147.469 193.848 148.016 194.316 148.415 194.926C148.813 195.529 149.012 196.2 149.012 196.938H146.798C146.798 196.271 146.587 195.749 146.165 195.374C145.749 194.993 145.151 194.803 144.372 194.803C143.645 194.803 143.08 194.958 142.676 195.269C142.277 195.579 142.078 196.013 142.078 196.569C142.078 197.038 142.295 197.431 142.728 197.747C143.162 198.058 143.877 198.362 144.873 198.661C145.869 198.954 146.669 199.291 147.272 199.672C147.876 200.047 148.318 200.48 148.599 200.973C148.881 201.459 149.021 202.03 149.021 202.687C149.021 203.753 148.611 204.603 147.791 205.235C146.976 205.862 145.869 206.176 144.469 206.176C143.543 206.176 142.69 206.006 141.911 205.666C141.137 205.32 140.534 204.846 140.1 204.242C139.673 203.639 139.459 202.936 139.459 202.133H141.682C141.682 202.859 141.923 203.422 142.403 203.82C142.884 204.219 143.572 204.418 144.469 204.418C145.242 204.418 145.822 204.263 146.209 203.952C146.601 203.636 146.798 203.22 146.798 202.704Z"/>
</mask>
<path d="M50.4607 199.936C50.4607 201.189 50.2439 202.291 49.8103 203.24C49.3767 204.184 48.7556 204.91 47.947 205.42C47.1443 205.924 46.2185 206.176 45.1697 206.176C44.1326 206.176 43.2068 205.924 42.3923 205.42C41.5837 204.91 40.9568 204.187 40.5115 203.249C40.072 202.312 39.8494 201.23 39.8435 200.006V199.285C39.8435 198.037 40.0632 196.936 40.5027 195.98C40.948 195.025 41.572 194.296 42.3748 193.792C43.1833 193.282 44.1091 193.027 45.1521 193.027C46.1951 193.027 47.1179 193.279 47.9207 193.783C48.7292 194.281 49.3533 195.002 49.7927 195.945C50.2322 196.883 50.4548 197.976 50.4607 199.224V199.936ZM48.2371 199.268C48.2371 197.85 47.9675 196.763 47.4285 196.007C46.8953 195.251 46.1365 194.873 45.1521 194.873C44.1912 194.873 43.4382 195.251 42.8933 196.007C42.3542 196.757 42.0789 197.82 42.0671 199.197V199.936C42.0671 201.342 42.3396 202.429 42.8845 203.196C43.4353 203.964 44.197 204.348 45.1697 204.348C46.1541 204.348 46.9099 203.973 47.4373 203.223C47.9705 202.473 48.2371 201.377 48.2371 199.936V199.268Z" stroke="black" stroke-width="2" mask="url(#path-1-outside-1)"/>
<path d="M54.8992 201.245V206H52.6755V193.203H57.571C59.0007 193.203 60.1345 193.575 60.9724 194.319C61.8162 195.063 62.238 196.048 62.238 197.272C62.238 198.526 61.825 199.502 60.9988 200.199C60.1785 200.896 59.0271 201.245 57.5447 201.245H54.8992ZM54.8992 199.461H57.571C58.3621 199.461 58.9656 199.276 59.3816 198.907C59.7976 198.532 60.0056 197.993 60.0056 197.29C60.0056 196.599 59.7947 196.048 59.3728 195.638C58.9509 195.222 58.3708 195.008 57.6326 194.996H54.8992V199.461Z" stroke="black" stroke-width="2" mask="url(#path-1-outside-1)"/>
<path d="M71.6687 200.287H66.4128V204.225H72.5564V206H64.1892V193.203H72.4949V194.996H66.4128V198.529H71.6687V200.287Z" stroke="black" stroke-width="2" mask="url(#path-1-outside-1)"/>
<path d="M84.5183 206H82.2947L76.5906 196.921V206H74.3669V193.203H76.5906L82.3123 202.317V193.203H84.5183V206Z" stroke="black" stroke-width="2" mask="url(#path-1-outside-1)"/>
<path d="M89.3699 204.225H95.1794V206H87.1462V193.203H89.3699V204.225Z" stroke="black" stroke-width="2" mask="url(#path-1-outside-1)"/>
<path d="M104.223 203.021H99.2664L98.2292 206H95.9177L100.752 193.203H102.747L107.59 206H105.269L104.223 203.021ZM99.8904 201.228H103.599L101.745 195.919L99.8904 201.228Z" stroke="black" stroke-width="2" mask="url(#path-1-outside-1)"/>
<path d="M111.905 199.268L114.849 193.203H117.31L113.021 201.289V206H110.789V201.289L106.491 193.203H108.961L111.905 199.268Z" stroke="black" stroke-width="2" mask="url(#path-1-outside-1)"/>
<path d="M126.178 200.287H120.923V204.225H127.066V206H118.699V193.203H127.005V194.996H120.923V198.529H126.178V200.287Z" stroke="black" stroke-width="2" mask="url(#path-1-outside-1)"/>
<path d="M133.579 201.069H131.1V206H128.877V193.203H133.377C134.853 193.203 135.993 193.534 136.796 194.196C137.598 194.858 138 195.816 138 197.07C138 197.926 137.792 198.644 137.376 199.224C136.966 199.798 136.391 200.24 135.653 200.551L138.527 205.886V206H136.145L133.579 201.069ZM131.1 199.285H133.385C134.135 199.285 134.721 199.098 135.143 198.723C135.565 198.342 135.776 197.823 135.776 197.167C135.776 196.481 135.58 195.951 135.187 195.576C134.801 195.201 134.22 195.008 133.447 194.996H131.1V199.285Z" stroke="black" stroke-width="2" mask="url(#path-1-outside-1)"/>
<path d="M146.798 202.704C146.798 202.142 146.598 201.708 146.2 201.403C145.807 201.099 145.095 200.791 144.064 200.48C143.033 200.17 142.213 199.824 141.603 199.443C140.437 198.711 139.854 197.756 139.854 196.578C139.854 195.547 140.273 194.697 141.111 194.029C141.955 193.361 143.048 193.027 144.389 193.027C145.28 193.027 146.074 193.191 146.771 193.52C147.469 193.848 148.016 194.316 148.415 194.926C148.813 195.529 149.012 196.2 149.012 196.938H146.798C146.798 196.271 146.587 195.749 146.165 195.374C145.749 194.993 145.151 194.803 144.372 194.803C143.645 194.803 143.08 194.958 142.676 195.269C142.277 195.579 142.078 196.013 142.078 196.569C142.078 197.038 142.295 197.431 142.728 197.747C143.162 198.058 143.877 198.362 144.873 198.661C145.869 198.954 146.669 199.291 147.272 199.672C147.876 200.047 148.318 200.48 148.599 200.973C148.881 201.459 149.021 202.03 149.021 202.687C149.021 203.753 148.611 204.603 147.791 205.235C146.976 205.862 145.869 206.176 144.469 206.176C143.543 206.176 142.69 206.006 141.911 205.666C141.137 205.32 140.534 204.846 140.1 204.242C139.673 203.639 139.459 202.936 139.459 202.133H141.682C141.682 202.859 141.923 203.422 142.403 203.82C142.884 204.219 143.572 204.418 144.469 204.418C145.242 204.418 145.822 204.263 146.209 203.952C146.601 203.636 146.798 203.22 146.798 202.704Z" stroke="black" stroke-width="2" mask="url(#path-1-outside-1)"/>
<path d="M105.648 56.9035L161.255 99.4781C174.504 109.622 174.602 129.547 161.453 139.82L108.341 181.314C98.9396 188.658 85.703 188.503 76.4765 180.94L22.0372 136.318C11.476 127.661 11.556 111.48 22.2022 102.928L79.1132 57.2128C86.8319 51.0126 97.7867 50.8849 105.648 56.9035Z" stroke="black"/>
<path d="M105.648 44.9035L161.255 87.4781C174.504 97.6219 174.602 117.547 161.453 127.82L108.341 169.314C98.9396 176.658 85.703 176.503 76.4765 168.94L22.0372 124.318C11.476 115.661 11.556 99.4801 22.2022 90.9282L79.1132 45.2128C86.8319 39.0126 97.7867 38.8849 105.648 44.9035Z" stroke="black"/>
<path d="M105.7 29.1645L160.556 71.0278C173.737 81.0872 173.963 100.853 161.015 111.211L108.438 153.273C99.036 160.795 85.6546 160.715 76.3429 153.082L22.0947 108.617C11.5335 99.9599 11.6135 83.7788 22.2597 75.2269L79.1923 29.4941C86.9012 23.3018 97.8397 23.1657 105.7 29.1645Z" stroke="black"/>
<path d="M76.5456 153.134L29.547 114.277L42.907 100.625C75.1866 67.6382 125.376 59.9451 166.053 81.7462C174.483 87.3025 175.191 99.4104 167.461 105.911L139.495 129.427L108.464 153.599C99.0316 160.946 85.7605 160.753 76.5456 153.134Z" stroke="black"/>
</svg>
