<svg width="172" height="197" viewBox="0 0 172 197" fill="none" xmlns="http://www.w3.org/2000/svg">
<mask id="path-1-outside-1" maskUnits="userSpaceOnUse" x="45.1154" y="181.027" width="81" height="16" fill="black">
<rect fill="white" x="45.1154" y="181.027" width="81" height="16"/>
<path d="M50.8176 190.069H48.3391V195H46.1154V182.203H50.6154C52.092 182.203 53.2316 182.534 54.0344 183.196C54.8371 183.858 55.2385 184.816 55.2385 186.07C55.2385 186.926 55.0305 187.644 54.6144 188.224C54.2043 188.798 53.6301 189.24 52.8918 189.551L55.7658 194.886V195H53.384L50.8176 190.069ZM48.3391 188.285H50.6242C51.3742 188.285 51.9601 188.098 52.382 187.723C52.8039 187.342 53.0148 186.823 53.0148 186.167C53.0148 185.481 52.8185 184.951 52.426 184.576C52.0392 184.201 51.4592 184.008 50.6857 183.996H48.3391V188.285Z"/>
<path d="M64.8273 189.287H59.5715V193.225H65.715V195H57.3478V182.203H65.6535V183.996H59.5715V187.529H64.8273V189.287Z"/>
<path d="M74.6887 192.021H69.7316L68.6945 195H66.383L71.217 182.203H73.2121L78.0549 195H75.7346L74.6887 192.021ZM70.3557 190.228H74.0646L72.2101 184.919L70.3557 190.228Z"/>
<path d="M89.0851 190.834C88.9562 192.199 88.4523 193.266 87.5734 194.033C86.6945 194.795 85.5256 195.176 84.0666 195.176C83.0471 195.176 82.1476 194.936 81.3683 194.455C80.5949 193.969 79.9973 193.28 79.5754 192.39C79.1535 191.499 78.9338 190.465 78.9162 189.287V188.092C78.9162 186.885 79.1301 185.821 79.5578 184.901C79.9855 183.981 80.5978 183.272 81.3947 182.774C82.1974 182.276 83.1232 182.027 84.1721 182.027C85.5842 182.027 86.7209 182.411 87.5822 183.179C88.4435 183.946 88.9445 185.03 89.0851 186.431H86.8703C86.7648 185.511 86.4953 184.849 86.0617 184.444C85.634 184.034 85.0041 183.829 84.1721 183.829C83.2053 183.829 82.4611 184.184 81.9396 184.893C81.424 185.596 81.1603 186.63 81.1486 187.995V189.129C81.1486 190.512 81.3947 191.566 81.8869 192.293C82.3849 193.02 83.1115 193.383 84.0666 193.383C84.9396 193.383 85.5959 193.187 86.0353 192.794C86.4748 192.401 86.7531 191.748 86.8703 190.834H89.0851Z"/>
<path d="M100.063 183.996H96.0724V195H93.8664V183.996H89.9113V182.203H100.063V183.996Z"/>
<path d="M110.944 182.203H113.158V191.177C113.158 192.401 112.775 193.374 112.007 194.095C111.245 194.815 110.237 195.176 108.984 195.176C107.648 195.176 106.616 194.839 105.89 194.165C105.163 193.491 104.8 192.554 104.8 191.353H107.015C107.015 192.032 107.182 192.545 107.516 192.891C107.856 193.23 108.345 193.4 108.984 193.4C109.581 193.4 110.056 193.204 110.407 192.812C110.765 192.413 110.944 191.865 110.944 191.168V182.203Z"/>
<path d="M122.396 191.704C122.396 191.142 122.196 190.708 121.798 190.403C121.405 190.099 120.694 189.791 119.662 189.48C118.631 189.17 117.811 188.824 117.201 188.443C116.035 187.711 115.452 186.756 115.452 185.578C115.452 184.547 115.871 183.697 116.709 183.029C117.553 182.361 118.646 182.027 119.987 182.027C120.878 182.027 121.672 182.191 122.369 182.52C123.067 182.848 123.614 183.316 124.013 183.926C124.411 184.529 124.611 185.2 124.611 185.938H122.396C122.396 185.271 122.185 184.749 121.763 184.374C121.347 183.993 120.749 183.803 119.97 183.803C119.243 183.803 118.678 183.958 118.274 184.269C117.875 184.579 117.676 185.013 117.676 185.569C117.676 186.038 117.893 186.431 118.326 186.747C118.76 187.058 119.475 187.362 120.471 187.661C121.467 187.954 122.267 188.291 122.87 188.672C123.474 189.047 123.916 189.48 124.197 189.973C124.479 190.459 124.619 191.03 124.619 191.687C124.619 192.753 124.209 193.603 123.389 194.235C122.574 194.862 121.467 195.176 120.067 195.176C119.141 195.176 118.288 195.006 117.509 194.666C116.736 194.32 116.132 193.846 115.698 193.242C115.271 192.639 115.057 191.936 115.057 191.133H117.28C117.28 191.859 117.521 192.422 118.001 192.82C118.482 193.219 119.17 193.418 120.067 193.418C120.84 193.418 121.42 193.263 121.807 192.952C122.199 192.636 122.396 192.22 122.396 191.704Z"/>
</mask>
<path d="M50.8176 190.069H48.3391V195H46.1154V182.203H50.6154C52.092 182.203 53.2316 182.534 54.0344 183.196C54.8371 183.858 55.2385 184.816 55.2385 186.07C55.2385 186.926 55.0305 187.644 54.6144 188.224C54.2043 188.798 53.6301 189.24 52.8918 189.551L55.7658 194.886V195H53.384L50.8176 190.069ZM48.3391 188.285H50.6242C51.3742 188.285 51.9601 188.098 52.382 187.723C52.8039 187.342 53.0148 186.823 53.0148 186.167C53.0148 185.481 52.8185 184.951 52.426 184.576C52.0392 184.201 51.4592 184.008 50.6857 183.996H48.3391V188.285Z" stroke="black" stroke-width="2" mask="url(#path-1-outside-1)"/>
<path d="M64.8273 189.287H59.5715V193.225H65.715V195H57.3478V182.203H65.6535V183.996H59.5715V187.529H64.8273V189.287Z" stroke="black" stroke-width="2" mask="url(#path-1-outside-1)"/>
<path d="M74.6887 192.021H69.7316L68.6945 195H66.383L71.217 182.203H73.2121L78.0549 195H75.7346L74.6887 192.021ZM70.3557 190.228H74.0646L72.2101 184.919L70.3557 190.228Z" stroke="black" stroke-width="2" mask="url(#path-1-outside-1)"/>
<path d="M89.0851 190.834C88.9562 192.199 88.4523 193.266 87.5734 194.033C86.6945 194.795 85.5256 195.176 84.0666 195.176C83.0471 195.176 82.1476 194.936 81.3683 194.455C80.5949 193.969 79.9973 193.28 79.5754 192.39C79.1535 191.499 78.9338 190.465 78.9162 189.287V188.092C78.9162 186.885 79.1301 185.821 79.5578 184.901C79.9855 183.981 80.5978 183.272 81.3947 182.774C82.1974 182.276 83.1232 182.027 84.1721 182.027C85.5842 182.027 86.7209 182.411 87.5822 183.179C88.4435 183.946 88.9445 185.03 89.0851 186.431H86.8703C86.7648 185.511 86.4953 184.849 86.0617 184.444C85.634 184.034 85.0041 183.829 84.1721 183.829C83.2053 183.829 82.4611 184.184 81.9396 184.893C81.424 185.596 81.1603 186.63 81.1486 187.995V189.129C81.1486 190.512 81.3947 191.566 81.8869 192.293C82.3849 193.02 83.1115 193.383 84.0666 193.383C84.9396 193.383 85.5959 193.187 86.0353 192.794C86.4748 192.401 86.7531 191.748 86.8703 190.834H89.0851Z" stroke="black" stroke-width="2" mask="url(#path-1-outside-1)"/>
<path d="M100.063 183.996H96.0724V195H93.8664V183.996H89.9113V182.203H100.063V183.996Z" stroke="black" stroke-width="2" mask="url(#path-1-outside-1)"/>
<path d="M110.944 182.203H113.158V191.177C113.158 192.401 112.775 193.374 112.007 194.095C111.245 194.815 110.237 195.176 108.984 195.176C107.648 195.176 106.616 194.839 105.89 194.165C105.163 193.491 104.8 192.554 104.8 191.353H107.015C107.015 192.032 107.182 192.545 107.516 192.891C107.856 193.23 108.345 193.4 108.984 193.4C109.581 193.4 110.056 193.204 110.407 192.812C110.765 192.413 110.944 191.865 110.944 191.168V182.203Z" stroke="black" stroke-width="2" mask="url(#path-1-outside-1)"/>
<path d="M122.396 191.704C122.396 191.142 122.196 190.708 121.798 190.403C121.405 190.099 120.694 189.791 119.662 189.48C118.631 189.17 117.811 188.824 117.201 188.443C116.035 187.711 115.452 186.756 115.452 185.578C115.452 184.547 115.871 183.697 116.709 183.029C117.553 182.361 118.646 182.027 119.987 182.027C120.878 182.027 121.672 182.191 122.369 182.52C123.067 182.848 123.614 183.316 124.013 183.926C124.411 184.529 124.611 185.2 124.611 185.938H122.396C122.396 185.271 122.185 184.749 121.763 184.374C121.347 183.993 120.749 183.803 119.97 183.803C119.243 183.803 118.678 183.958 118.274 184.269C117.875 184.579 117.676 185.013 117.676 185.569C117.676 186.038 117.893 186.431 118.326 186.747C118.76 187.058 119.475 187.362 120.471 187.661C121.467 187.954 122.267 188.291 122.87 188.672C123.474 189.047 123.916 189.48 124.197 189.973C124.479 190.459 124.619 191.03 124.619 191.687C124.619 192.753 124.209 193.603 123.389 194.235C122.574 194.862 121.467 195.176 120.067 195.176C119.141 195.176 118.288 195.006 117.509 194.666C116.736 194.32 116.132 193.846 115.698 193.242C115.271 192.639 115.057 191.936 115.057 191.133H117.28C117.28 191.859 117.521 192.422 118.001 192.82C118.482 193.219 119.17 193.418 120.067 193.418C120.84 193.418 121.42 193.263 121.807 192.952C122.199 192.636 122.396 192.22 122.396 191.704Z" stroke="black" stroke-width="2" mask="url(#path-1-outside-1)"/>
<path d="M113.606 101.282C102.323 120.547 88.8083 136.171 76.1929 145.886C69.8794 150.748 63.9162 154.033 58.6778 155.623C53.454 157.208 49.1971 157.044 45.9231 155.396C42.6491 153.747 40.1822 150.527 38.7709 145.602C37.3556 140.663 37.0802 134.237 38.0398 126.68C39.9574 111.58 46.7294 92.5626 58.0123 73.297C69.2951 54.0313 82.8102 38.4081 95.4256 28.6931C101.739 23.8311 107.702 20.5453 112.941 18.9559C118.164 17.371 122.421 17.5351 125.695 19.1831C128.969 20.8312 131.436 24.0517 132.848 28.9766C134.263 33.9153 134.538 40.3415 133.579 47.8984C131.661 62.9986 124.889 82.0161 113.606 101.282Z" stroke="#61DAFB" stroke-width="6"/>
<path d="M86.4792 117.205C63.3474 117.113 42.4601 113.384 27.4176 107.534C19.8867 104.605 13.9739 101.204 9.97398 97.5898C5.97652 93.9782 4.12291 90.3847 4.04632 86.9644C3.96973 83.5441 5.66272 79.9647 9.49913 76.3842C13.3379 72.8015 19.0994 69.4465 26.5004 66.577C41.2836 60.8454 62.0077 57.2819 85.1394 57.3738C108.271 57.4658 129.159 61.1946 144.201 67.0448C151.732 69.9736 157.645 73.3751 161.645 76.9889C165.642 80.6005 167.496 84.194 167.572 87.6143C167.649 91.0346 165.956 94.614 162.119 98.1945C158.281 101.777 152.519 105.132 145.118 108.002C130.335 113.733 109.611 117.297 86.4792 117.205Z" stroke="#61DAFB" stroke-width="6"/>
<path d="M112.524 71.503C124.166 90.5741 131.391 109.635 133.747 124.957C134.925 132.624 134.861 139.203 133.635 144.324C132.412 149.431 130.105 152.849 126.963 154.706C123.821 156.562 119.67 156.96 114.514 155.623C109.343 154.282 103.41 151.247 97.0841 146.621C84.4437 137.377 70.736 122.147 59.0942 103.076C47.4525 84.0046 40.2273 64.9436 37.872 49.6221C36.6932 41.9542 36.7578 35.3752 37.9836 30.2547C39.2062 25.148 41.5138 21.7297 44.6557 19.8731C47.7975 18.0165 51.9487 17.6183 57.105 18.9556C62.2752 20.2966 68.2084 23.3314 74.5345 27.9577C87.1749 37.2016 100.883 52.432 112.524 71.503Z" stroke="#61DAFB" stroke-width="6"/>
<ellipse cx="85.1807" cy="88.2455" rx="16.3767" ry="15.1829" fill="#61DAFB"/>
</svg>
